<?xml version="1.0" encoding="iso-8859-1"?>


<svg height="800px" width="800px" version="1.1" id="Layer_1" xmlns="http://www.w3.org/2000/svg" xmlns:xlink="http://www.w3.org/1999/xlink" 
	 viewBox="0 0 392.558 392.558" xml:space="preserve">
<circle style="fill:#FFC10D;" cx="196.315" cy="196.231" r="135.758"/>
<g>
	<path style="fill:#194F82;" d="M196.315,115.681c19.459,0,35.297,15.838,35.297,35.297c0,5.495,4.461,9.956,9.956,9.956
		s9.956-4.461,9.956-9.956c0-27.022-19.523-49.519-45.188-54.174v-9.438c0-5.495-4.461-9.956-9.956-9.956s-9.956,4.461-9.956,9.956
		v9.438c-25.665,4.719-45.188,27.216-45.188,54.174c0,30.384,24.76,55.143,55.143,55.143c19.459,0,35.297,15.838,35.297,35.297
		s-15.838,35.297-35.297,35.297s-35.297-15.838-35.297-35.297c0-5.495-4.461-9.956-9.956-9.956s-9.956,4.461-9.956,9.956
		c0,27.022,19.523,49.519,45.188,54.174v9.438c0,5.495,4.461,9.956,9.956,9.956s9.956-4.461,9.956-9.956v-9.438
		c25.665-4.719,45.188-27.216,45.188-54.174c0-30.384-24.76-55.143-55.143-55.143c-19.459,0-35.297-15.838-35.297-35.297
		C161.018,131.584,176.857,115.681,196.315,115.681z"/>
	<path style="fill:#194F82;" d="M268.461,378.921c5.624-2.263,8.339-8.598,6.077-14.158c-2.263-5.56-8.469-8.339-14.158-6.077
		c-64.711,25.535-138.343,10.279-187.539-38.982c-68.073-68.073-68.073-178.812,0-246.885s178.812-68.073,246.885,0
		c61.608,60.057,72.469,169.568,4.848,241.778v-35.491c0-6.012-4.848-10.925-10.925-10.925c-6.077,0-10.925,4.848-10.925,10.925
		v61.414c0,6.012,4.848,10.925,10.925,10.925h61.349c6.012,0,10.925-4.848,10.925-10.925s-4.849-10.925-10.925-10.925h-34.586
		c68.137-71.693,72.663-191.354-5.236-272.162C258.57-19.042,134.061-19.042,57.455,57.499s-76.606,201.115,0,277.721
		C112.145,389.653,193.923,407.624,268.461,378.921z"/>
</g>
</svg>