<?xml version="1.0" encoding="iso-8859-1"?>


<svg version="1.1" id="Layer_1" xmlns="http://www.w3.org/2000/svg" xmlns:xlink="http://www.w3.org/1999/xlink" 
	 viewBox="0 0 512 512" xml:space="preserve">
<rect x="388.992" y="45.79" style="fill:#CCC3A8;" width="84.227" height="43.834"/>
<path style="fill:#C9B585;" d="M417.966,115.063v-60.65c0-7.144,5.792-12.935,12.935-12.935h-20.839
	c-7.144,0-12.935,5.79-12.935,12.935v60.65c0,7.143,5.79,12.935,12.935,12.935H430.9
	C423.757,127.998,417.966,122.206,417.966,115.063z"/>
<rect x="372.877" y="89.627" style="fill:#7C7A75;" width="116.445" height="383.957"/>
<path style="fill:#6B6861;" d="M401.854,475.617V96.757c0-7.252,5.792-13.13,12.935-13.13H393.95
	c-7.144,0-12.935,5.878-12.935,13.13v378.861c0,7.252,5.79,13.13,12.935,13.13h20.839
	C407.645,488.747,401.854,482.869,401.854,475.617z"/>
<path style="fill:#CCC3A8;" d="M402.74,503.916h87.667c7.461,0,13.509-6.048,13.509-13.509v-3.32
	c0-7.461-6.048-13.509-13.509-13.509h-81.2H102.795h-81.2c-7.461,0-13.509,6.048-13.509,13.509v3.32
	c0,7.461,6.048,13.509,13.509,13.509h81.2h272.341"/>
<path style="fill:#C9B585;" d="M38.23,490.407v-3.32c0-7.461,6.048-13.509,13.508-13.509H29.727c-7.46,0-13.508,6.048-13.508,13.509
	v3.32c0,7.461,6.048,13.509,13.508,13.509h22.011C44.278,503.916,38.23,497.868,38.23,490.407z"/>
<polygon style="fill:#FFB92E;" points="372.882,473.577 256.432,473.577 256.432,239.092 372.882,173.87 "/>
<path style="fill:#EF9A1D;" d="M286.124,217.822l-29.581,16.568c-1.702,0.954-2.756,2.752-2.756,4.702v234.484
	c0,2.977,2.413,5.389,5.389,5.389h26.947V217.822z"/>
<polygon style="fill:#F28838;" points="256.432,473.577 139.984,473.577 139.984,239.092 256.432,173.87 "/>
<path style="fill:#EF711D;" d="M169.675,218.544h-1.288l-28.291,15.846c-1.702,0.954-2.756,2.752-2.756,4.702v234.484
	c0,2.977,2.413,5.389,5.389,5.389h26.946L169.675,218.544L169.675,218.544z"/>
<polygon style="fill:#FFB92E;" points="139.984,473.577 23.536,473.577 23.536,239.092 139.984,173.87 "/>
<path style="fill:#EF9A1D;" d="M52.15,473.577v-19.077V239.092v-15.234l-18.802,10.531c-1.702,0.954-2.756,2.752-2.756,4.702
	v234.484c0,2.977,2.412,5.389,5.389,5.389h21.558C54.562,478.967,52.15,476.553,52.15,473.577z"/>
<g>
	<rect x="287.174" y="307.879" style="fill:#52C6EB;" width="54.973" height="49.842"/>
	<rect x="170.718" y="307.879" style="fill:#52C6EB;" width="54.973" height="49.842"/>
	<rect x="54.273" y="307.879" style="fill:#52C6EB;" width="54.973" height="49.842"/>
</g>
<g>
	<path style="fill:#3EACC6;" d="M316.144,359.878v-49.842c0-2.977,2.413-5.389,5.389-5.389h-20.839
		c-2.977,0-5.389,2.412-5.389,5.389v49.842c0,2.977,2.412,5.389,5.389,5.389h20.839
		C318.558,365.267,316.144,362.855,316.144,359.878z"/>
	<path style="fill:#3EACC6;" d="M199.696,359.878v-49.842c0-2.977,2.413-5.389,5.389-5.389h-20.839
		c-2.976,0-5.389,2.412-5.389,5.389v49.842c0,2.977,2.413,5.389,5.389,5.389h20.839C202.11,365.267,199.696,362.855,199.696,359.878
		z"/>
	<path style="fill:#3EACC6;" d="M82.206,359.878v-49.842c0-2.977,2.413-5.389,5.389-5.389H66.756c-2.976,0-5.389,2.412-5.389,5.389
		v49.842c0,2.977,2.413,5.389,5.389,5.389h20.839C84.619,365.267,82.206,362.855,82.206,359.878z"/>
</g>
<g>
	<path style="fill:#231F20;" d="M497.414,466.682V89.624c0-4.466-3.618-8.084-8.084-8.084h-2.673h-5.354V45.79
		c0-4.466-3.618-8.084-8.084-8.084h-34.027V8.084c0-4.466-3.618-8.084-8.084-8.084s-8.084,3.618-8.084,8.084v29.622h-34.029
		c-4.465,0-8.084,3.618-8.084,8.084V81.54h-8.027c-4.466,0-8.084,3.618-8.084,8.084v79.507l-100.282,56.168V173.87
		c0-2.869-1.521-5.524-3.997-6.975s-5.536-1.48-8.038-0.079l-104.413,58.482V173.87c0-2.869-1.521-5.524-3.997-6.975
		c-2.475-1.451-5.536-1.48-8.038-0.079L19.585,232.039c-2.552,1.43-4.134,4.127-4.134,7.054v227.302
		c-8.922,2.654-15.451,10.919-15.451,20.691v3.32C0.001,502.313,9.688,512,21.595,512h353.541c4.466,0,8.084-3.618,8.084-8.084
		s-3.618-8.084-8.084-8.084H21.595c-2.991,0-5.425-2.434-5.425-5.425v-3.32c0-2.991,2.434-5.425,5.425-5.425h1.941h116.448h116.448
		H372.88h55.399h58.374h2.673h1.078c2.991,0,5.425,2.434,5.425,5.425v3.32c0,2.991-2.434,5.425-5.425,5.425h-87.667
		c-4.466,0-8.084,3.618-8.084,8.084s3.618,8.084,8.084,8.084h87.667c11.906,0,21.593-9.687,21.593-21.593v-3.32
		C512.001,477.635,505.887,469.601,497.414,466.682z M397.077,53.874h68.057V81.54h-36.853h-31.204L397.077,53.874L397.077,53.874z
		 M31.62,243.831l100.28-56.167v51.43v226.4H31.62V243.831z M148.068,243.831l100.28-56.167v51.43v226.4h-100.28V243.831z
		 M264.516,243.831l100.28-56.167v277.83h-100.28V243.831z M428.281,465.493h-47.315V173.87V97.708h8.027h39.288h44.936h8.027
		v22.227h-52.963c-4.466,0-8.084,3.618-8.084,8.084c0,4.465,3.618,8.084,8.084,8.084h52.965v22.226h-52.965
		c-4.466,0-8.084,3.618-8.084,8.084c0,4.466,3.618,8.084,8.084,8.084h52.965v22.226h-52.965c-4.466,0-8.084,3.618-8.084,8.084
		s3.618,8.084,8.084,8.084h52.965v22.227h-52.965c-4.466,0-8.084,3.618-8.084,8.084s3.618,8.084,8.084,8.084h52.965v22.227h-52.965
		c-4.466,0-8.084,3.618-8.084,8.084c0,4.466,3.618,8.084,8.084,8.084h52.965v22.226h-52.965c-4.466,0-8.084,3.618-8.084,8.084
		s3.618,8.084,8.084,8.084h52.965v22.226h-52.965c-4.466,0-8.084,3.618-8.084,8.084s3.618,8.084,8.084,8.084h52.965v22.227h-52.965
		c-4.466,0-8.084,3.618-8.084,8.084s3.618,8.084,8.084,8.084h52.965v22.227h-52.965c-4.466,0-8.084,3.618-8.084,8.084
		s3.618,8.084,8.084,8.084h52.965v22.226h-52.965V465.493z"/>
	<path style="fill:#231F20;" d="M342.144,272.847h-54.973c-4.466,0-8.084,3.618-8.084,8.084s3.618,8.084,8.084,8.084h54.973
		c4.466,0,8.084-3.618,8.084-8.084S346.609,272.847,342.144,272.847z"/>
	<path style="fill:#231F20;" d="M225.696,272.847h-54.973c-4.466,0-8.084,3.618-8.084,8.084s3.618,8.084,8.084,8.084h54.973
		c4.466,0,8.084-3.618,8.084-8.084S230.161,272.847,225.696,272.847z"/>
	<path style="fill:#231F20;" d="M109.248,272.847H54.275c-4.466,0-8.084,3.618-8.084,8.084s3.618,8.084,8.084,8.084h54.973
		c4.465,0,8.084-3.618,8.084-8.084S113.713,272.847,109.248,272.847z"/>
	<path style="fill:#231F20;" d="M342.144,299.796h-54.973c-4.466,0-8.084,3.618-8.084,8.084v49.842c0,4.466,3.618,8.084,8.084,8.084
		h54.973c4.466,0,8.084-3.618,8.084-8.084V307.88C350.228,303.414,346.609,299.796,342.144,299.796z M334.06,349.638h-38.804
		v-33.673h38.804V349.638z"/>
	<path style="fill:#231F20;" d="M225.696,299.796h-54.973c-4.466,0-8.084,3.618-8.084,8.084v49.842c0,4.466,3.618,8.084,8.084,8.084
		h54.973c4.466,0,8.084-3.618,8.084-8.084V307.88C233.78,303.414,230.161,299.796,225.696,299.796z M217.612,349.638h-38.804
		v-33.673h38.804V349.638z"/>
	<path style="fill:#231F20;" d="M109.248,299.796H54.275c-4.466,0-8.084,3.618-8.084,8.084v49.842c0,4.466,3.618,8.084,8.084,8.084
		h54.973c4.465,0,8.084-3.618,8.084-8.084V307.88C117.332,303.414,113.713,299.796,109.248,299.796z M101.164,349.638H62.359
		v-33.673h38.804V349.638z"/>
</g>
</svg>