<?xml version="1.0" encoding="iso-8859-1"?>
<!-- Uploaded to: SVG Repo, www.svgrepo.com, Generator: SVG Repo Mixer Tools -->
<svg height="800px" width="800px" version="1.1" id="Layer_1" xmlns="http://www.w3.org/2000/svg" xmlns:xlink="http://www.w3.org/1999/xlink" 
	 viewBox="0 0 508 508" xml:space="preserve">
<path style="fill:#FFFFFF;" d="M465.7,28.2H42.3c-7.8,0-14.1,6.3-14.1,14.1v258.2c0,7.8,6.3,14.1,14.1,14.1h423.3
	c7.8,0,14.1-6.3,14.1-14.1V42.3C479.8,34.6,473.4,28.2,465.7,28.2z"/>
<path style="fill:#194F82;" d="M465.7,0H42.3C19,0,0,19,0,42.3v258.2c0,23.3,19,42.3,42.3,42.3h423.3c23.3,0,42.3-19,42.3-42.3V42.3
	C508,19,489,0,465.7,0z M479.8,300.5c0,7.8-6.3,14.1-14.1,14.1H42.3c-7.8,0-14.1-6.3-14.1-14.1V42.3c0-7.8,6.3-14.1,14.1-14.1h423.3
	c7.8,0,14.1,6.3,14.1,14.1v258.2H479.8z"/>
<path style="fill:#FFC10D;" d="M62.7,272.4V70.1c2.2,0,4-1.8,4-4h374.4c0,2.2,1.8,4,4,4v202.3c-2.2,0-4,1.8-4,4H66.7
	C66.7,274.2,64.9,272.4,62.7,272.4z"/>
<g>
	<path style="fill:#194F82;" d="M493.9,367.5H14.1c-7.8,0-14.1,6.3-14.1,14.1c0,7.8,6.3,14.1,14.1,14.1h479.8
		c7.8,0,14.1-6.3,14.1-14.1C508,373.9,501.7,367.5,493.9,367.5z"/>
	<path style="fill:#194F82;" d="M493.9,423.7H14.1C6.3,423.7,0,430,0,437.8s6.3,14.1,14.1,14.1h479.8c7.8,0,14.1-6.3,14.1-14.1
		S501.7,423.7,493.9,423.7z"/>
	<path style="fill:#194F82;" d="M493.9,479.8H14.1c-7.8,0-14.1,6.3-14.1,14.1S6.3,508,14.1,508h479.8c7.8,0,14.1-6.3,14.1-14.1
		S501.7,479.8,493.9,479.8z"/>
</g>
<path style="fill:#56ACE0;" d="M254,128.9c-19,0-34.5,19.1-34.5,42.6S235,214,254,214s34.5-19.1,34.5-42.6S273,128.9,254,128.9z"/>
<g>
	<path style="fill:#194F82;" d="M254,100.6c-34.6,0-62.7,31.8-62.7,70.8s28.1,70.8,62.7,70.8s62.7-31.8,62.7-70.8
		S288.6,100.6,254,100.6z M254,214c-19,0-34.5-19.1-34.5-42.6s15.5-42.6,34.5-42.6s34.5,19.1,34.5,42.6S273,214,254,214z"/>
	<path style="fill:#194F82;" d="M390.4,157.3h-35.1c-7.8,0-14.1,6.3-14.1,14.1s6.3,14.1,14.1,14.1h35.1c7.8,0,14.1-6.3,14.1-14.1
		S398.1,157.3,390.4,157.3z"/>
	<path style="fill:#194F82;" d="M152.8,157.3h-35.1c-7.8,0-14.1,6.3-14.1,14.1s6.3,14.1,14.1,14.1h35.1c7.8,0,14.1-6.3,14.1-14.1
		C166.9,163.6,160.6,157.3,152.8,157.3z"/>
</g>
</svg>