<svg width="20" height="20" viewBox="0 0 24 24" fill="none" xmlns="http://www.w3.org/2000/svg">
  <path d="M12 2C9.23858 2 7 4.23858 7 7C7 9.05 7.94 10.87 9.35 12.04C9.13 13.07 8.5 14.5 6 16C6 16 9 16 12 16C15 16 18 16 18 16C15.5 14.5 14.87 13.07 14.65 12.04C16.06 10.87 17 9.05 17 7C17 4.23858 14.7614 2 12 2Z" fill="#FBBF24" stroke="#F59E0B" stroke-width="1.5"/>
  <rect x="9" y="16" width="6" height="3" fill="#FBBF24" stroke="#F59E0B" stroke-width="1.5"/>
  <path d="M9 19H15V21C15 21.5523 14.5523 22 14 22H10C9.44772 22 9 21.5523 9 21V19Z" fill="#F59E0B"/>
</svg>