<svg width="16" height="16" viewBox="0 0 24 24" fill="none" xmlns="http://www.w3.org/2000/svg">
  <path d="M10 13C10.4295 13.5741 10.9774 14.0491 11.6065 14.3929C12.2357 14.7367 12.9315 14.9411 13.6467 14.9923C14.3618 15.0435 15.0796 14.9403 15.7513 14.6897C16.4231 14.4392 17.0331 14.047 17.54 13.54L20.54 10.54C21.4508 9.59695 21.9547 8.33394 21.9434 7.02296C21.932 5.71198 21.4061 4.45791 20.4791 3.53087C19.552 2.60383 18.298 2.07799 16.987 2.0666C15.676 2.0552 14.413 2.55918 13.47 3.46999L11.75 5.17999" stroke="#3B82F6" stroke-width="2" stroke-linecap="round" stroke-linejoin="round"/>
  <path d="M14 11C13.5705 10.4259 13.0226 9.95089 12.3934 9.60706C11.7642 9.26323 11.0684 9.05886 10.3533 9.00764C9.63816 8.95641 8.92037 9.05964 8.24861 9.31021C7.57685 9.56079 6.96684 9.95295 6.45996 10.46L3.45996 13.46C2.54915 14.403 2.04517 15.666 2.05656 16.977C2.06794 18.288 2.59378 19.5421 3.52082 20.4691C4.44786 21.3961 5.70193 21.922 7.01292 21.9334C8.3239 21.9448 9.58691 21.4408 10.53 20.53L12.24 18.82" stroke="#3B82F6" stroke-width="2" stroke-linecap="round" stroke-linejoin="round"/>
</svg>