<?xml version="1.0" encoding="iso-8859-1"?>
<!-- Uploaded to: SVG Repo, www.svgrepo.com, Generator: SVG Repo Mixer Tools -->
<svg version="1.1" id="Layer_1" xmlns="http://www.w3.org/2000/svg" xmlns:xlink="http://www.w3.org/1999/xlink" 
	 viewBox="0 0 512 512" xml:space="preserve">
<rect x="69.631" y="10.894" style="fill:#FFAC3D;" width="392.17" height="65.362"/>
<rect x="69.631" y="413.957" style="fill:#BFDEFF;" width="392.17" height="87.149"/>
<rect x="338.333" y="76.255" style="fill:#EBEBEB;" width="59.915" height="337.702"/>
<path style="fill:#A8A8A8;" d="M219.278,130.723h-71.632c-13.31,0-24.099-10.789-24.099-24.099V76.255h119.83v30.369
	C243.377,119.933,232.588,130.723,219.278,130.723z"/>
<path style="fill:#EBEBEB;" d="M183.462,185.191L183.462,185.191c-21.057,0-38.128-17.07-38.128-38.128v-16.34h76.255v16.34
	C221.59,168.121,204.519,185.191,183.462,185.191z"/>
<g>
	<rect x="112.65" y="359.489" style="fill:#2969B0;" width="141.617" height="54.468"/>
	<rect x="398.248" y="76.255" style="fill:#2969B0;" width="63.553" height="157.957"/>
</g>
<rect x="313.823" y="295.119" style="fill:#A8A8A8;" width="108.936" height="53.379"/>
<g>
	<path style="fill:#231F20;" d="M461.802,0H69.631c-6.017,0-10.894,4.878-10.894,10.894v65.362c0,6.015,4.877,10.894,10.894,10.894
		h43.022v19.476c0,14.624,9.021,27.174,21.787,32.398v8.042c0,23.286,16.325,42.817,38.128,47.786v76.862
		c0,6.015,4.877,10.894,10.894,10.894s10.894-4.878,10.894-10.894V194.85c21.802-4.969,38.128-24.5,38.128-47.786v-8.042
		c12.766-5.223,21.787-17.773,21.787-32.398V87.149h73.169v197.08h-13.617c-6.015,0-10.894,4.878-10.894,10.894v53.379
		c0,6.015,4.878,10.894,10.894,10.894h13.617v43.669h-62.276v-73.979c0-6.015-4.877-10.894-10.894-10.894
		s-10.894,4.878-10.894,10.894v19.51h-119.83v-70.348c0-6.015-4.877-10.894-10.894-10.894c-6.017,0-10.894,4.878-10.894,10.894
		v29.727H61.091v-24.74c0-6.015-4.877-10.894-10.894-10.894s-10.894,4.878-10.894,10.894v71.269c0,6.015,4.877,10.894,10.894,10.894
		s10.894-4.878,10.894-10.894v-24.742h40.669v73.302H69.631c-6.017,0-10.894,4.878-10.894,10.894v87.149
		c0,6.015,4.877,10.894,10.894,10.894h392.17c6.015,0,10.894-4.878,10.894-10.894v-87.149c0-6.015-4.878-10.894-10.894-10.894
		h-52.66v-43.669h13.617c6.015,0,10.894-4.878,10.894-10.894v-53.379c0-6.015-4.878-10.894-10.894-10.894h-13.617v-39.122h52.661
		c6.015,0,10.894-4.878,10.894-10.894V10.894C472.695,4.878,467.818,0,461.802,0z M80.525,21.787h370.383v43.574H80.525
		L80.525,21.787L80.525,21.787z M210.696,147.064c0,15.017-12.217,27.234-27.234,27.234c-15.017,0-27.234-12.217-27.234-27.234
		v-5.447h54.468V147.064z M232.483,106.625c0,7.282-5.924,13.205-13.205,13.205h-71.632c-7.281,0-13.205-5.924-13.205-13.205V87.149
		h98.043V106.625z M123.547,370.383h119.83v32.681h-119.83C123.547,403.064,123.547,370.383,123.547,370.383z M450.908,490.213
		H80.525v-21.787h96.038c6.017,0,10.894-4.878,10.894-10.894c0-6.015-4.877-10.894-10.894-10.894H80.525v-21.787h370.383
		L450.908,490.213L450.908,490.213z M387.355,403.064h-38.128v-43.669h38.128V403.064z M411.865,337.607h-87.149v-31.591h87.149
		V337.607z M349.227,284.229V87.149h38.128v197.08H349.227z M450.908,223.319h-41.766V87.149h41.767v136.17H450.908z"/>
	<path style="fill:#231F20;" d="M191.16,319.404c2.037-2.026,3.192-4.837,3.192-7.702c0-2.865-1.155-5.676-3.192-7.702
		c-2.026-2.025-4.826-3.192-7.702-3.192c-2.865,0-5.665,1.166-7.702,3.192c-2.026,2.026-3.192,4.837-3.192,7.702
		c0,2.865,1.166,5.676,3.192,7.702c2.037,2.025,4.837,3.192,7.702,3.192C186.334,322.596,189.134,321.43,191.16,319.404z"/>
	<path style="fill:#231F20;" d="M215.78,446.638h-2.179c-6.017,0-10.894,4.878-10.894,10.894c0,6.015,4.877,10.894,10.894,10.894
		h2.179c6.017,0,10.894-4.878,10.894-10.894C226.674,451.516,221.797,446.638,215.78,446.638z"/>
</g>
</svg>