<?xml version="1.0" encoding="iso-8859-1"?>
<!-- Uploaded to: SVG Repo, www.svgrepo.com, Generator: SVG Repo Mixer Tools -->
<svg version="1.1" id="Layer_1" xmlns="http://www.w3.org/2000/svg" xmlns:xlink="http://www.w3.org/1999/xlink" 
	 viewBox="0 0 511.998 511.998" xml:space="preserve">
<polyline style="fill:#FFB92E;" points="204.063,303.574 204.063,267.35 258.687,267.35 259.583,267.35 265.509,267.35 
	271.88,267.35 272.777,267.35 300.022,267.35 300.918,267.35 307.286,267.35 313.216,267.35 314.111,267.35 356.168,267.35 
	361.781,303.574 "/>
<path style="fill:#EF9A1D;" d="M235.401,295.664v-25.446c0-2.977,2.413-5.389,5.389-5.389h-33.967c-2.976,0-5.389,2.412-5.389,5.389
	v25.446c0,2.977,2.413,5.389,5.389,5.389h33.967C237.814,301.054,235.401,298.641,235.401,295.664z"/>
<rect x="77.522" y="154.831" style="fill:#CCC3A8;" width="114.1" height="36.754"/>
<path style="fill:#C9B585;" d="M106.291,195.559V163.68c0-7.143,5.791-12.934,12.934-12.934h-20.66
	c-7.144,0-12.934,5.791-12.934,12.934v31.879c0,7.144,5.79,12.934,12.934,12.934h20.659
	C112.081,208.493,106.291,202.703,106.291,195.559z"/>
<path style="fill:#FFB92E;" d="M463.02,64.707h12.218h17.109c6.376,0,11.545,5.169,11.545,11.545
	c0,6.376-5.168,11.545-11.545,11.545h-45.132h-84.347h-45.132l-2.487-23.089h121.904"/>
<polygon style="fill:#EF9A1D;" points="322.279,60.622 324.766,83.712 354.686,83.712 352.2,60.622 "/>
<rect x="421.909" y="297.558" style="fill:#E35F46;" width="73.692" height="44.245"/>
<rect x="421.909" y="341.803" style="fill:#D64330;" width="73.692" height="23.928"/>
<path style="fill:#D8422E;" d="M461.457,298.86h-20.658c-7.145,0-12.934,5.791-12.934,12.934v31.312h20.658v-31.312
	C448.523,304.651,454.314,298.86,461.457,298.86z"/>
<path style="fill:#B22B20;" d="M448.523,354.095v-10.989h-20.658v10.989c0,7.143,5.789,12.934,12.934,12.934h20.658
	C454.314,367.029,448.523,361.238,448.523,354.095z"/>
<path style="fill:#36A1CB;" d="M21.018,400.579h56.962v51.662h32.335v-51.662h205.119v51.662h32.335v-51.662h143.189
	c7.143,0,12.934,5.79,12.934,12.934v77.456c0,7.143-5.791,12.934-12.934,12.934H21.018c-7.143,0-12.934-5.791-12.934-12.934v-77.456
	C8.084,406.369,13.875,400.579,21.018,400.579z"/>
<path style="fill:#43B4D6;" d="M499.066,396.493h-24.199H248.153h-24.199c16.202,43.784,47.384,80.302,87.329,103.325h24.196
	h139.386h24.199c7.143,0,12.934-5.791,12.934-12.934v-0.001v-77.454v-0.001C512,402.284,506.209,396.493,499.066,396.493z"/>
<g>
	<polyline style="fill:#7C7A75;" points="204.063,218.064 204.063,204.519 204.063,191.586 191.139,191.586 191.129,191.585 
		78.021,191.585 78.011,191.586 65.087,191.586 65.087,204.519 65.087,290.641 65.087,303.574 78.011,303.574 78.021,303.575 
		191.129,303.575 191.139,303.574 204.063,303.574 204.063,290.641 204.063,243.934 	"/>
	<path style="fill:#7C7A75;" d="M301.952,352.076c0-8.929,7.24-16.168,16.168-16.168h26.963c8.93,0,16.168,7.239,16.168,16.168
		s-7.238,16.168-16.168,16.168H318.12C309.192,368.244,301.952,361.005,301.952,352.076z"/>
	<path style="fill:#7C7A75;" d="M64.498,352.076c0-8.929,7.24-16.168,16.168-16.168h26.963c8.93,0,16.168,7.239,16.168,16.168
		s-7.238,16.168-16.168,16.168H80.665C71.738,368.244,64.498,361.005,64.498,352.076z"/>
</g>
<g>
	<path style="fill:#CCC3A8;" d="M273.074,335.909h102.331c8.928,0,16.168-7.239,16.168-16.168s-7.24-16.168-16.168-16.168H273.553
		h-3.234h-11.317h-90.534h-11.316h-3.232H52.069c-8.929,0-16.168,7.239-16.168,16.168s7.239,16.168,16.168,16.168h101.851h3.232
		h11.316h77.658"/>
	<rect x="315.429" y="368.243" style="fill:#CCC3A8;" width="32.335" height="83.997"/>
	<rect x="77.982" y="368.243" style="fill:#CCC3A8;" width="32.335" height="83.997"/>
</g>
<path style="fill:#7C7A75;" d="M445.25,88.009v9.137v12.466v9.137c0,7.461,6.048,13.509,13.509,13.509h3.32
	c7.461,0,13.509-6.048,13.509-13.509v-9.137V97.146v-9.137H445.25z"/>
<g>
	<path style="fill:#6B6861;" d="M93.855,299.489v-12.933v-86.12c0-7.144,5.791-12.934,12.934-12.934H86.13
		c-7.143,0-12.934,5.79-12.934,12.934v86.12v12.933h12.923c0.004,0,0.009,0.001,0.011,0.001h20.659c-0.001,0-0.005-0.001-0.01-0.001
		H93.855z"/>
	<path style="fill:#6B6861;" d="M330.721,353.38c0-8.929,7.238-16.168,16.168-16.168h-20.66c-8.928,0-16.168,7.239-16.168,16.168
		c0,8.929,7.24,16.168,16.168,16.168h20.66C337.958,369.548,330.721,362.309,330.721,353.38z"/>
	<path style="fill:#6B6861;" d="M93.266,353.38c0-8.929,7.239-16.168,16.168-16.168h-20.66c-8.929,0-16.168,7.239-16.168,16.168
		c0,8.929,7.239,16.168,16.168,16.168h20.659C100.505,369.548,93.266,362.309,93.266,353.38z"/>
</g>
<path style="fill:#C9B585;" d="M64.669,321.045c0-8.929,7.24-16.168,16.168-16.168H60.178c-8.929,0-16.168,7.239-16.168,16.168
	c0,8.929,7.239,16.168,16.168,16.168h20.659C71.908,337.213,64.669,329.974,64.669,321.045z"/>
<g>
	<path style="fill:#231F20;" d="M490.957,392.495H355.853v-18.699c7.981-3.974,13.482-12.215,13.482-21.72
		c0-2.834-0.494-5.554-1.39-8.084h7.462c13.372,0,24.251-10.88,24.251-24.251c0-13.372-10.88-24.251-24.251-24.251h-6.698
		l-4.552-29.379c-0.609-3.94-4.001-6.846-7.988-6.846h-11.844l-7.331-68.099c-0.017-0.347-0.05-0.69-0.11-1.024l-4.908-45.588
		l-1.859-17.273c0-0.002-0.001-0.004-0.001-0.005l-3.38-31.394h110.432v22.868c0,9.046,5.599,16.799,13.509,20.008v97.389
		c-7.282,3.142-12.395,10.387-12.395,18.809c0,3.68,0.988,7.127,2.695,10.114l-18.452,24.404h-0.611
		c-4.465,0-8.084,3.618-8.084,8.084v44.246v23.923c0,4.465,3.618,8.084,8.084,8.084h73.691c4.465,0,8.084-3.618,8.084-8.084v-23.923
		v-44.246c0-4.466-3.618-8.084-8.084-8.084h-0.609l-18.452-24.402c1.706-2.988,2.696-6.436,2.696-10.116
		c0-8.421-5.113-15.667-12.395-18.809v-96.351c9.619-2.177,16.828-10.778,16.828-21.045V95.881h8.676
		c10.824,0,19.629-8.805,19.629-19.629s-8.805-19.629-19.629-19.629h-29.327c-4.464,0-8.084,3.618-8.084,8.084
		c0,4.465,3.619,8.084,8.084,8.084h29.327c1.908,0,3.461,1.552,3.461,3.461c0,1.909-1.553,3.461-3.461,3.461H324.994l-0.745-6.922
		h112.902c4.466,0,8.084-3.618,8.084-8.084c0-4.465-3.618-8.084-8.084-8.084H322.507l-1.784-16.571
		c-0.442-4.107-3.908-7.218-8.037-7.218h-18.204V8.095c0-4.465-3.618-8.084-8.084-8.084c-4.466,0-8.084,3.618-8.084,8.084v24.739
		h-18.206c-4.13,0-7.596,3.113-8.037,7.218l-23.597,219.213h-16.329v-15.332c0-4.465-3.619-8.084-8.084-8.084
		s-8.084,3.618-8.084,8.084v23.416v28.14h-4.84H78.011h-4.839v-95.82h4.839c0.044,0,0.087,0,0.132-0.001h112.867
		c0.044,0.001,0.087,0.001,0.132,0.001h4.839v18.394c0,4.465,3.619,8.084,8.084,8.084s8.084-3.618,8.084-8.084v-26.478
		c0-4.465-3.619-8.084-8.084-8.084h-4.353v-28.67c0-4.465-3.619-8.084-8.084-8.084h-48.341V122.01c0-4.465-3.619-8.084-8.084-8.084
		s-8.084,3.618-8.084,8.084v24.737H77.522c-4.464,0-8.084,3.618-8.084,8.084v28.672h-4.351c-4.464,0-8.084,3.618-8.084,8.084V295.49
		h-4.934c-13.373,0-24.251,10.88-24.251,24.251c0,13.372,10.879,24.251,24.251,24.251h5.735c-0.898,2.53-1.39,5.25-1.39,8.084
		c0,9.505,5.499,17.746,13.482,21.72v18.699H21.018C9.428,392.495,0,401.924,0,413.513v77.456c0,11.589,9.428,21.018,21.018,21.018
		h469.94c11.589,0,21.018-9.429,21.018-21.018v-77.456C511.975,401.924,502.545,392.495,490.957,392.495z M460.959,258.642
		c-0.075,0.045-0.153,0.085-0.231,0.125c-0.126,0.067-0.253,0.134-0.398,0.192c-0.127,0.05-0.261,0.084-0.393,0.123
		c-0.113,0.033-0.217,0.074-0.338,0.099c-0.272,0.054-0.552,0.085-0.84,0.085s-0.568-0.031-0.84-0.085
		c-0.121-0.025-0.223-0.066-0.335-0.098c-0.135-0.039-0.271-0.073-0.399-0.124c-0.141-0.057-0.264-0.122-0.387-0.186
		c-0.084-0.043-0.168-0.086-0.249-0.135c-0.126-0.077-0.246-0.155-0.347-0.231c-1.058-0.786-1.754-2.035-1.754-3.451
		c0-2.378,1.934-4.311,4.311-4.311s4.311,1.934,4.311,4.311c0,1.413-0.692,2.657-1.745,3.444
		C461.219,258.478,461.093,258.56,460.959,258.642z M487.519,333.719h-57.523V305.64h57.523V333.719z M487.519,357.641h-57.523
		v-7.755h57.523V357.641z M442.792,289.472l11.063-14.631c0.201,0.05,0.405,0.087,0.608,0.13c0.1,0.022,0.199,0.044,0.301,0.065
		c0.574,0.113,1.154,0.203,1.74,0.266c0.146,0.016,0.292,0.026,0.439,0.039c0.539,0.046,1.08,0.078,1.621,0.082
		c0.066,0,0.129,0.01,0.196,0.01c0.067,0,0.13-0.01,0.197-0.01c0.54-0.005,1.08-0.036,1.617-0.082
		c0.148-0.013,0.296-0.023,0.443-0.04c0.583-0.064,1.162-0.153,1.734-0.265c0.103-0.02,0.206-0.044,0.309-0.066
		c0.201-0.043,0.403-0.08,0.603-0.128l11.063,14.631h-31.933V289.472z M467.504,118.749c0,2.991-2.434,5.425-5.425,5.425h-3.32
		c-2.991,0-5.425-2.434-5.425-5.425V96.093h14.169L467.504,118.749L467.504,118.749z M85.606,162.915h97.936v20.587H85.606V162.915z
		 M323.517,400.579v-24.251h16.168v24.251v43.578h-16.168V400.579z M353.167,352.076c0,4.458-3.626,8.084-8.084,8.084H318.12
		c-4.458,0-8.084-3.626-8.084-8.084s3.626-8.084,8.084-8.084h26.963C349.54,343.993,353.167,347.618,353.167,352.076z
		 M263.799,82.187l11.07,10.883l-13.691,13.46L263.799,82.187z M273.569,157.094l-19.54,15.855l3.14-29.163L273.569,157.094z
		 M286.399,167.505l19.715,15.996h-39.428L286.399,167.505z M299.229,157.094l16.4-13.307l3.14,29.162L299.229,157.094z
		 M286.399,146.685l-12.884-10.455h25.77L286.399,146.685z M302.979,199.669l-16.58,11.452l-16.58-11.452H302.979z M322.324,205.956
		l3.487,32.387l-25.188-17.397L322.324,205.956z M311.619,106.528L297.931,93.07l11.068-10.882L311.619,106.528z M302.324,120.062
		h-31.85l15.925-15.657L302.324,120.062z M250.476,205.956l21.7,14.989l-25.187,17.397L250.476,205.956z M286.399,230.77
		l41.253,28.495h-82.506L286.399,230.77z M305.426,49.002l1.366,12.684L286.4,81.734l-20.395-20.05l1.366-12.682H305.426z
		 M212.147,275.433h23.59h101.328h0.021h12.155l3.108,20.056H212.147V275.433z M43.985,319.741c0-4.458,3.626-8.084,8.084-8.084
		h13.018H77.89c0.044,0.001,0.087,0.001,0.131,0.001H191.13c0.043,0,0.087,0,0.13-0.001h12.804h157.682
		c0.009,0,0.016,0.001,0.025,0.001c0.004,0,0.01-0.001,0.014-0.001h13.621c4.458,0,8.084,3.626,8.084,8.084
		c0,4.458-3.626,8.084-8.084,8.084h-30.323H318.12h-45.046c-4.466,0-8.084,3.618-8.084,8.084s3.618,8.084,8.084,8.084h22.185
		c-0.898,2.53-1.39,5.25-1.39,8.084c0,9.505,5.499,17.746,13.482,21.72v18.699H118.398v-18.699
		c7.982-3.974,13.482-12.215,13.482-21.72c0-2.834-0.494-5.554-1.39-8.084h115.638c4.464,0,8.084-3.618,8.084-8.084
		s-3.619-8.084-8.084-8.084H107.629H80.665H52.069C47.611,327.825,43.985,324.199,43.985,319.741z M86.063,400.579v-24.251h16.168
		v24.251v43.578H86.063V400.579z M107.629,343.993c4.458,0,8.084,3.626,8.084,8.084s-3.626,8.084-8.084,8.084H80.665
		c-4.458,0-8.084-3.626-8.084-8.084s3.626-8.084,8.084-8.084H107.629z M495.808,490.969c0,2.674-2.176,4.85-4.85,4.85H21.018
		c-2.675,0-4.85-2.176-4.85-4.85v-77.456c0-2.674,2.175-4.85,4.85-4.85h48.878v35.494H58.923c-4.464,0-8.084,3.618-8.084,8.084
		s3.619,8.084,8.084,8.084h19.056h32.335h25.674c4.464,0,8.084-3.618,8.084-8.084s-3.619-8.084-8.084-8.084h-17.59v-35.494H307.35
		v35.494h-24.954c-4.465,0-8.084,3.618-8.084,8.084s3.618,8.084,8.084,8.084h33.038h32.335h25.883c4.464,0,8.084-3.618,8.084-8.084
		s-3.619-8.084-8.084-8.084h-17.799v-35.494h135.105c2.674,0,4.85,2.176,4.85,4.85L495.808,490.969L495.808,490.969z"/>
	<path style="fill:#231F20;" d="M409.218,444.157H399.16c-4.465,0-8.084,3.618-8.084,8.084s3.618,8.084,8.084,8.084h10.058
		c4.465,0,8.084-3.618,8.084-8.084S413.683,444.157,409.218,444.157z"/>
	<path style="fill:#231F20;" d="M171.349,212.497H95.225c-4.464,0-8.084,3.618-8.084,8.084c0,4.465,3.619,8.084,8.084,8.084h76.124
		c4.464,0,8.084-3.618,8.084-8.084C179.433,216.116,175.814,212.497,171.349,212.497z"/>
	<path style="fill:#231F20;" d="M171.349,239.443H95.225c-4.464,0-8.084,3.618-8.084,8.084c0,4.465,3.619,8.084,8.084,8.084h76.124
		c4.464,0,8.084-3.618,8.084-8.084C179.433,243.062,175.814,239.443,171.349,239.443z"/>
	<path style="fill:#231F20;" d="M171.349,266.387H95.225c-4.464,0-8.084,3.618-8.084,8.084s3.619,8.084,8.084,8.084h76.124
		c4.464,0,8.084-3.618,8.084-8.084S175.814,266.387,171.349,266.387z"/>
</g>
</svg>